# xmcd
#
# Track frame offsets:
# 150
# 18072
# 37447
# 56335
# 79097
# 91172
# 112220
# 131565
# 145327
# 167832
#
# Disc length: 2478 seconds
#
#
# Revision: 1
# Processed by: cddbd v1.5.2PL0 Copyright (c) Steve Scherf et al.
# Submitted via: FreeRIP 2.95 
#
DISCID=8509ac0a
DTITLE=Daniel e Samuel - O Especialista
DYEAR=1900
DGENRE=Gospel
TTITLE0=Só Jesus
TTITLE1=Sempre te amei
TTITLE2=Pela fé em Jesus
TTITLE3=Tudo Ele vai resolver
TTITLE4=O especialista
TTITLE5=Saudade de Tereza
TTITLE6=A gente precisa de amor
TTITLE7=Igreja
TTITLE8=Menino do sinaleiro
TTITLE9=Quanto sao?
EXTD=
EXTT0=
EXTT1=
EXTT2=
EXTT3=
EXTT4=
EXTT5=
EXTT6=
EXTT7=
EXTT8=
EXTT9=
PLAYORDER=
